<?xml version="1.0" encoding="UTF-8" standalone="no"?>
<svg
   xmlns:dc="http://purl.org/dc/elements/1.1/"
   xmlns:cc="http://creativecommons.org/ns#"
   xmlns:rdf="http://www.w3.org/1999/02/22-rdf-syntax-ns#"
   xmlns:svg="http://www.w3.org/2000/svg"
   xmlns="http://www.w3.org/2000/svg"
   xmlns:xlink="http://www.w3.org/1999/xlink"
   width="159.1577mm"
   height="41.924278mm"
   viewBox="0 0 159.1577 41.924278"
   version="1.1"
   id="svg8">
  <defs
     id="defs2">
    <linearGradient
       id="linearGradient10661">
      <stop
         style="stop-color:#d4aa00;stop-opacity:1;"
         offset="0"
         id="stop10657" />
      <stop
         style="stop-color:#d4aa00;stop-opacity:0;"
         offset="1"
         id="stop10659" />
    </linearGradient>
    <radialGradient
       xlink:href="#linearGradient10661"
       id="radialGradient10663"
       cx="333.6864"
       cy="544.39972"
       fx="333.6864"
       fy="544.39972"
       r="116.76125"
       gradientTransform="matrix(1,0,0,0.1712897,0,451.14963)"
       gradientUnits="userSpaceOnUse" />
  </defs>
  <metadata
     id="metadata5">
    <rdf:RDF>
      <cc:Work
         rdf:about="">
        <dc:format>image/svg+xml</dc:format>
        <dc:type
           rdf:resource="http://purl.org/dc/dcmitype/StillImage" />
        <dc:title></dc:title>
      </cc:Work>
    </rdf:RDF>
  </metadata>
  <g
     id="layer1"
     transform="matrix(0.97580646,0,0,0.892846,-28.089638,-134.49617)"
     style="fill:#d4aa00;fill-opacity:1;stroke:none;stroke-width:0;stroke-miterlimit:4;stroke-dasharray:none">
    <g
       id="flowRoot10"
       style="font-style:normal;font-weight:normal;font-size:40px;line-height:1.25;font-family:sans-serif;letter-spacing:0px;word-spacing:0px;fill:#d4aa00;fill-opacity:1;stroke:none;stroke-width:0;stroke-miterlimit:4;stroke-dasharray:none;stroke-opacity:1"
       transform="matrix(0.68155191,0,0,1.048107,-117.08665,-396.11425)"
       aria-label="Fadoua Lifestyle">
      <path
         id="path823"
         style="font-style:normal;font-variant:normal;font-weight:normal;font-stretch:normal;font-family:'Dancing Script';-inkscape-font-specification:'Dancing Script';fill:#d4aa00;fill-opacity:1;stroke:none;stroke-width:0;stroke-miterlimit:4;stroke-dasharray:none;stroke-opacity:1"
         d="m 221.74658,554.9652 q -2.06275,-0.15144 -2.55602,-0.94655 -0.49327,-0.7951 -0.49327,-2.04456 0,-1.36304 0.67264,-3.33188 0.67264,-2.0067 1.65916,-4.35415 1.03139,-2.34747 2.06277,-4.69493 -0.53811,0.0379 -1.16592,0.11359 -0.58293,0.0379 -1.4798,0.15145 -0.89685,0.0758 -2.3318,0.26504 0.0897,-0.98442 0.85201,-1.51449 0.80716,-0.56794 2.1076,-0.83297 1.30042,-0.26504 2.91476,-0.3029 1.25558,-2.91539 2.55602,-5.67934 1.34527,-2.8018 2.6457,-5.1114 -0.44843,-0.0379 -0.89685,-0.0379 -0.40358,-0.0379 -0.85201,-0.0379 -2.86991,0 -4.4394,0.49221 -1.56949,0.49221 -2.15244,1.51449 -0.58295,1.02228 -0.58295,2.61249 0,0.83297 0.13453,1.55235 0.13453,0.68153 0.44842,1.43877 -1.52463,-0.22718 -2.24212,-0.98442 -0.71749,-0.79511 -0.71749,-1.96883 0,-1.96884 1.65917,-3.44547 1.65918,-1.51449 4.43942,-2.34746 2.82508,-0.87083 6.23309,-0.87083 2.37666,0 4.57393,0.3029 2.24213,0.26503 4.34972,0.26503 0.9417,0 1.70401,-0.0757 0.80716,-0.11359 1.61433,-0.3029 -1.65917,1.59021 -2.78023,2.12029 -1.12107,0.53007 -2.28696,0.53007 -1.03138,0 -2.69056,-0.22718 -1.61433,-0.26503 -3.67707,-0.41648 -0.58295,1.24946 -1.30043,3.02898 -0.71748,1.74166 -1.4798,3.74836 -0.76232,1.96884 -1.52465,3.93767 2.24213,0.11359 4.21519,0.34076 2.01791,0.22718 3.63223,0.26504 -0.35873,0.45435 -0.85199,0.71938 -0.44843,0.22718 -1.30044,0.34077 -0.852,0.11357 -2.37664,0.18931 -1.4798,0.0379 -3.99098,0.0757 -0.26906,0.7951 -0.67264,1.89311 -0.40358,1.098 -0.71748,2.08242 -0.3139,0.98443 -0.49327,1.43877 -0.98653,2.91539 -1.70402,5.45216 -0.67263,2.53677 -0.71747,4.65705 z" />
      <path
         id="path825"
         style="font-style:normal;font-variant:normal;font-weight:normal;font-stretch:normal;font-family:'Dancing Script';-inkscape-font-specification:'Dancing Script';fill:#d4aa00;fill-opacity:1;stroke:none;stroke-width:0;stroke-miterlimit:4;stroke-dasharray:none;stroke-opacity:1"
         d="m 233.78328,555.07969 q -1.24,0 -2.08,-0.84 -0.88,-0.8 -0.88,-2.48 0,-1.44 0.64,-3.08 0.64,-1.68 1.76,-3.28 1.12,-1.64 2.52,-2.96 1.44,-1.36 3,-2.16 1.6,-0.8 3.16,-0.8 1.56,0 2.6,0.84 1.04,0.8 1.04,2.16 0,1 -0.56,1.36 -0.52,0.36 -1.4,0.36 0.08,-0.32 0.12,-0.68 0.08,-0.4 0.08,-0.72 0,-0.92 -0.44,-1.56 -0.44,-0.68 -1.52,-0.68 -1.12,0 -2.28,0.8 -1.16,0.76 -2.24,2.08 -1.08,1.28 -1.92,2.8 -0.84,1.52 -1.32,3 -0.48,1.48 -0.48,2.64 0,1.56 1.08,1.56 0.92,0 2,-0.84 1.08,-0.88 2.2,-2.2 1.16,-1.36 2.2,-2.8 1.04,-1.44 1.84,-2.64 0.16,-0.24 0.2,-0.24 0.24,0.04 0.6,0.16 0.4,0.12 0.68,0.32 0.28,0.2 0.28,0.52 0,0.36 -0.36,1 -0.36,0.6 -0.8,1.4 -0.44,0.8 -0.8,1.64 -0.36,0.8 -0.36,1.52 0,0.6 0.32,1.2 0.32,0.56 1.04,0.56 1.08,0 2.84,-1.56 1.76,-1.6 3.56,-4.76 l 0.4,0.4 q -0.84,2.16 -2.16,3.8 -1.32,1.64 -2.84,2.56 -1.48,0.92 -2.92,0.92 -1.48,0 -2.2,-0.88 -0.68,-0.88 -0.68,-1.92 0,-0.24 0.04,-0.52 0.04,-0.32 0.08,-0.64 -1.72,2.32 -3.16,3.48 -1.4,1.16 -2.88,1.16 z" />
      <path
         id="path827"
         style="font-style:normal;font-variant:normal;font-weight:normal;font-stretch:normal;font-family:'Dancing Script';-inkscape-font-specification:'Dancing Script';fill:#d4aa00;fill-opacity:1;stroke:none;stroke-width:0;stroke-miterlimit:4;stroke-dasharray:none;stroke-opacity:1"
         d="m 251.64516,554.39969 q -0.68,0 -1.4,-0.36 -0.68,-0.32 -1.12,-1.08 -0.48,-0.76 -0.48,-1.92 0,-1.32 0.64,-2.96 0.64,-1.64 1.72,-3.24 1.08,-1.64 2.48,-3 1.4,-1.4 2.92,-2.2 1.52,-0.84 3,-0.84 0.84,0 1.28,0.32 0.48,0.28 0.48,0.92 0,0.16 -0.04,0.28 0,0.12 -0.04,0.28 -0.2,-0.32 -0.6,-0.44 -0.36,-0.16 -0.92,-0.16 -1.28,0 -2.52,0.8 -1.2,0.76 -2.24,2.04 -1,1.24 -1.76,2.68 -0.76,1.44 -1.2,2.8 -0.4,1.32 -0.4,2.24 0,0.88 0.4,1.4 0.4,0.52 1.04,0.52 1.08,0 2.6,-1.36 1.56,-1.36 3.16,-3.84 1.6,-2.48 2.88,-5.8 0.88,-2.32 1.8,-4.72 0.96,-2.4 1.92,-4.6 0.96,-2.24 1.84,-3.96 0.92,-1.76 1.72,-2.76 0.84,-1.04 1.48,-1.04 0.32,0 0.56,0.28 0.24,0.24 0.24,0.64 0,0.64 -0.68,2.2 -0.64,1.52 -1.72,3.68 -1.04,2.12 -2.2,4.64 -1.16,2.52 -2.24,5.12 -1.04,2.6 -1.72,5.04 -0.64,2.4 -0.64,4.4 0,1.12 0.12,1.68 0.12,0.56 0.8,0.56 0.84,0 1.96,-0.72 1.12,-0.72 2.24,-2.04 1.12,-1.32 1.96,-3.16 l 0.48,0.36 q -0.76,2.04 -2.08,3.68 -1.32,1.6 -2.84,2.52 -1.48,0.96 -2.84,0.96 -1.48,0 -2.08,-1 -0.56,-0.96 -0.56,-2 0,-0.68 0.2,-1.8 0.2,-1.12 0.56,-2.48 -1.28,2.12 -2.72,3.84 -1.44,1.68 -2.84,2.64 -1.36,0.96 -2.6,0.96 z" />
      <path
         id="path829"
         style="font-style:normal;font-variant:normal;font-weight:normal;font-stretch:normal;font-family:'Dancing Script';-inkscape-font-specification:'Dancing Script';fill:#d4aa00;fill-opacity:1;stroke:none;stroke-width:0;stroke-miterlimit:4;stroke-dasharray:none;stroke-opacity:1"
         d="m 270.95141,554.47969 q -1.72,0 -2.44,-1.08 -0.72,-1.04 -0.72,-2.56 0,-1.24 0.4,-2.56 0.4,-1.32 1.04,-2.48 0.68,-1.16 1.48,-1.88 0.84,-0.72 1.68,-0.72 0.2,0 0.4,0.08 0.24,0.04 0.44,0.12 -0.36,0.32 -0.88,1.2 -0.48,0.84 -0.92,1.96 -0.44,1.08 -0.76,2.16 -0.28,1.08 -0.28,1.84 0,1.2 0.4,1.76 0.4,0.52 1.04,0.52 0.84,0 2,-0.88 1.16,-0.92 2.28,-2.32 -1.12,-0.92 -1.76,-2.4 -0.6,-1.52 -0.6,-3.08 0,-1.32 0.44,-2.48 0.48,-1.16 1.36,-1.84 0.88,-0.72 2.12,-0.72 1.64,0 2.2,0.88 0.56,0.88 0.56,2.2 0,1.56 -0.76,3.48 -0.76,1.88 -1.92,3.64 0.72,0.4 1.52,0.4 0.64,0 1.44,-0.24 0.8,-0.28 1.56,-0.92 0.8,-0.64 1.28,-1.72 l 0.48,0.4 q -0.8,1.88 -2.28,2.68 -1.44,0.76 -2.76,0.76 -0.52,0 -1,-0.08 -0.48,-0.12 -0.92,-0.32 -1.36,1.8 -3,3 -1.6,1.2 -3.12,1.2 z m 5.88,-5.88 q 1,-1.48 1.64,-3.08 0.68,-1.64 0.68,-3.08 0,-1.16 -0.36,-1.68 -0.32,-0.56 -0.84,-0.56 -0.8,0 -1.64,1.16 -0.84,1.16 -0.84,2.92 0,1.16 0.32,2.36 0.36,1.16 1.04,1.96 z" />
      <path
         id="path831"
         style="font-style:normal;font-variant:normal;font-weight:normal;font-stretch:normal;font-family:'Dancing Script';-inkscape-font-specification:'Dancing Script';fill:#d4aa00;fill-opacity:1;stroke:none;stroke-width:0;stroke-miterlimit:4;stroke-dasharray:none;stroke-opacity:1"
         d="m 285.80078,554.39969 q -1.36,0 -2.2,-1.2 -0.8,-1.24 -0.8,-2.84 0,-1.16 0.36,-2.68 0.4,-1.52 0.96,-3 0.56,-1.48 1.16,-2.44 0.6,-0.96 1.04,-0.96 0.2,0 0.68,0.24 0.48,0.2 0.8,0.56 -0.44,0.68 -1.08,2.08 -0.64,1.4 -1.12,3 -0.48,1.6 -0.48,2.96 0,0.32 0.08,1 0.08,0.64 0.4,1.16 0.32,0.52 0.96,0.52 0.76,0 1.56,-0.76 0.8,-0.8 1.6,-2.04 0.84,-1.24 1.6,-2.68 0.76,-1.44 1.4,-2.76 0.68,-1.32 1.12,-2.2 0.24,0.04 0.68,0.16 0.48,0.12 0.84,0.32 0.4,0.2 0.4,0.56 0,0.16 -0.4,1.08 -0.4,0.88 -0.96,2.2 -0.52,1.28 -0.92,2.6 -0.4,1.32 -0.4,2.32 0,0.72 0.28,1.16 0.32,0.44 1.04,0.44 0.84,0 2.04,-0.76 1.2,-0.76 2.44,-2.2 1.24,-1.48 2.2,-3.52 l 0.52,0.36 q -0.84,2.16 -2.2,3.84 -1.36,1.64 -2.88,2.56 -1.52,0.92 -2.96,0.92 -1.04,0 -1.68,-0.4 -0.6,-0.4 -0.88,-1.08 -0.24,-0.68 -0.24,-1.48 0,-0.48 0.08,-0.96 0.08,-0.52 0.2,-1.04 -0.72,1.32 -1.56,2.48 -0.84,1.12 -1.76,1.8 -0.92,0.68 -1.92,0.68 z" />
      <path
         id="path833"
         style="font-style:normal;font-variant:normal;font-weight:normal;font-stretch:normal;font-family:'Dancing Script';-inkscape-font-specification:'Dancing Script';fill:#d4aa00;fill-opacity:1;stroke:none;stroke-width:0;stroke-miterlimit:4;stroke-dasharray:none;stroke-opacity:1"
         d="m 302.22078,555.07969 q -1.24,0 -2.08,-0.84 -0.88,-0.8 -0.88,-2.48 0,-1.44 0.64,-3.08 0.64,-1.68 1.76,-3.28 1.12,-1.64 2.52,-2.96 1.44,-1.36 3,-2.16 1.6,-0.8 3.16,-0.8 1.56,0 2.6,0.84 1.04,0.8 1.04,2.16 0,1 -0.56,1.36 -0.52,0.36 -1.4,0.36 0.08,-0.32 0.12,-0.68 0.08,-0.4 0.08,-0.72 0,-0.92 -0.44,-1.56 -0.44,-0.68 -1.52,-0.68 -1.12,0 -2.28,0.8 -1.16,0.76 -2.24,2.08 -1.08,1.28 -1.92,2.8 -0.84,1.52 -1.32,3 -0.48,1.48 -0.48,2.64 0,1.56 1.08,1.56 0.92,0 2,-0.84 1.08,-0.88 2.2,-2.2 1.16,-1.36 2.2,-2.8 1.04,-1.44 1.84,-2.64 0.16,-0.24 0.2,-0.24 0.24,0.04 0.6,0.16 0.4,0.12 0.68,0.32 0.28,0.2 0.28,0.52 0,0.36 -0.36,1 -0.36,0.6 -0.8,1.4 -0.44,0.8 -0.8,1.64 -0.36,0.8 -0.36,1.52 0,0.6 0.32,1.2 0.32,0.56 1.04,0.56 1.08,0 2.84,-1.56 1.76,-1.6 3.56,-4.76 l 0.4,0.4 q -0.84,2.16 -2.16,3.8 -1.32,1.64 -2.84,2.56 -1.48,0.92 -2.92,0.92 -1.48,0 -2.2,-0.88 -0.68,-0.88 -0.68,-1.92 0,-0.24 0.04,-0.52 0.04,-0.32 0.08,-0.64 -1.72,2.32 -3.16,3.48 -1.4,1.16 -2.88,1.16 z" />
      <path
         id="path835"
         style="font-style:normal;font-variant:normal;font-weight:normal;font-stretch:normal;font-family:'Dancing Script';-inkscape-font-specification:'Dancing Script';fill:#d4aa00;fill-opacity:1;stroke:none;stroke-width:0;stroke-miterlimit:4;stroke-dasharray:none;stroke-opacity:1"
         d="m 343.99328,556.67969 q -1.44,0 -3.2,-0.6 -1.72,-0.6 -3.56,-1.48 -1.84,-0.84 -3.64,-1.64 -1,1.12 -2.08,1.72 -1.08,0.64 -2.36,0.64 -1.28,0 -2.16,-0.6 -0.92,-0.6 -1.36,-1.44 -0.48,-0.8 -0.48,-1.44 0,-0.72 0.68,-1.24 0.64,-0.52 2.24,-0.52 1.04,0 2.28,0.24 1.28,0.24 2.64,0.6 0.96,-1.68 1.76,-3.92 0.84,-2.24 1.64,-4.76 0.8,-2.52 1.6,-5.04 -1.84,-0.6 -2.92,-1.76 -1.04,-1.16 -1.04,-2.52 0,-0.72 0.28,-1.44 0.32,-0.72 0.88,-1.2 0.56,-0.52 1.32,-0.52 -0.28,0.4 -0.4,1.16 -0.12,0.76 -0.12,1.32 0,1.52 0.64,2.56 0.64,1 1.64,1.56 0.8,-2.4 1.64,-4.52 0.88,-2.16 1.92,-3.84 1.04,-1.68 2.28,-2.64 1.24,-0.96 2.76,-0.96 0.8,0 1.68,0.36 0.92,0.36 1.56,1.24 0.64,0.88 0.64,2.48 0,1.36 -0.56,2.96 -0.56,1.56 -1.72,3 -1.16,1.4 -2.96,2.32 -1.8,0.88 -4.24,0.92 -0.04,0 -0.2,0 -0.12,0 -0.56,0 -0.8,2.44 -1.72,4.96 -0.88,2.52 -1.88,4.8 -1,2.24 -2.16,4 1.84,0.56 3.72,1.16 1.88,0.56 3.64,0.92 1.76,0.4 3.24,0.4 0.84,0 1.52,-0.16 0.68,-0.16 1.32,-0.48 -0.64,1.84 -1.72,2.6 -1.04,0.8 -2.48,0.8 z m -15,-2.52 q 0.88,0 1.64,-0.48 0.8,-0.48 1.44,-1.36 -1.24,-0.52 -2.44,-0.84 -1.16,-0.36 -2.12,-0.36 -0.76,0 -1.04,0.2 -0.28,0.2 -0.28,0.56 0,0.68 0.8,1.48 0.76,0.8 2,0.8 z m 11.76,-17.24 q 1.8,0 3.24,-1 1.48,-1.04 2.48,-2.56 1.04,-1.56 1.56,-3.16 0.56,-1.6 0.56,-2.8 0,-1.16 -0.44,-1.56 -0.44,-0.44 -1,-0.44 -1.24,0 -2.32,1.6 -1.08,1.6 -2.08,4.24 -0.96,2.6 -2,5.68 z" />
      <path
         id="path837"
         style="font-style:normal;font-variant:normal;font-weight:normal;font-stretch:normal;font-family:'Dancing Script';-inkscape-font-specification:'Dancing Script';fill:#d4aa00;fill-opacity:1;stroke:none;stroke-width:0;stroke-miterlimit:4;stroke-dasharray:none;stroke-opacity:1"
         d="m 353.02453,554.23969 q -1.56,0 -2.32,-1 -0.76,-0.96 -0.76,-2.36 0,-0.92 0.32,-2.32 0.36,-1.4 0.92,-2.92 0.56,-1.56 1.28,-2.92 0.76,-1.36 1.6,-2.2 0.84,-0.88 1.64,-0.88 0.36,0 0.6,0.24 0.28,0.2 0.28,0.64 0,0.48 -0.64,1.56 -0.6,1.08 -1.44,2.48 -0.84,1.4 -1.48,2.96 -0.6,1.52 -0.6,2.92 0,1.44 0.48,1.92 0.48,0.48 1.48,0.48 1.36,0 2.88,-1.36 1.56,-1.36 3.28,-4.76 l 0.36,0.4 q -1.16,3.44 -3.36,5.28 -2.16,1.84 -4.52,1.84 z m 4.8,-18.32 q -0.64,0 -1.16,-0.32 -0.48,-0.32 -0.48,-1 0,-0.84 0.96,-1.44 1,-0.64 1.96,-0.64 0.6,0 0.96,0.28 0.36,0.28 0.36,0.96 0,0.76 -0.84,1.48 -0.8,0.68 -1.76,0.68 z" />
      <path
         id="path839"
         style="font-style:normal;font-variant:normal;font-weight:normal;font-stretch:normal;font-family:'Dancing Script';-inkscape-font-specification:'Dancing Script';fill:#d4aa00;fill-opacity:1;stroke:none;stroke-width:0;stroke-miterlimit:4;stroke-dasharray:none;stroke-opacity:1"
         d="m 359.23391,564.39969 q -0.4,0 -0.92,-0.28 -0.52,-0.24 -0.88,-1 -0.4,-0.76 -0.4,-2.24 0,-1.76 0.6,-4.6 0.6,-2.8 1.64,-6.2 1.04,-3.4 2.4,-6.96 1.36,-3.6 2.92,-6.92 1.6,-3.36 3.24,-6 1.68,-2.68 3.28,-4.24 1.6,-1.56 3.04,-1.56 0.84,0 1.08,0.52 0.28,0.52 0.28,1.24 0,1.72 -0.96,3.76 -0.92,2.04 -2.48,4.12 -1.56,2.04 -3.44,3.92 -1.88,1.84 -3.8,3.16 -0.2,0.48 -0.4,1 -0.16,0.48 -0.36,1 0.44,0.08 0.68,0.48 0.28,0.36 0.32,0.8 0.28,1.8 0.6,3.24 0.32,1.4 0.96,2.2 0.68,0.8 1.92,0.8 1.4,0 2.36,-1 0.96,-1.04 2.08,-2.92 l 0.6,0.4 q -1,2.4 -2.56,3.48 -1.52,1.08 -2.68,1.08 -0.72,0 -1.52,-0.36 -0.76,-0.36 -1.44,-0.96 0,2.52 -0.56,5 -0.52,2.48 -1.4,4.52 -0.88,2.04 -1.96,3.28 -1.08,1.24 -2.24,1.24 z m 1.04,-1.92 q 0.44,0 1,-0.8 0.56,-0.8 1.08,-2.12 0.56,-1.28 1,-2.84 0.44,-1.56 0.72,-3.12 0.28,-1.56 0.28,-2.8 0,-1.24 -0.32,-2.24 -0.32,-1.04 -1.04,-2.44 -1,3 -1.8,5.8 -0.8,2.8 -1.24,5.04 -0.44,2.24 -0.44,3.6 0,1.92 0.76,1.92 z m 5.2,-23 q 2.6,-2.4 4.48,-4.8 1.92,-2.44 2.96,-4.32 1.04,-1.92 1.04,-2.72 0,-0.56 -0.56,-0.56 -1.04,0 -2.36,1.72 -1.32,1.68 -2.76,4.48 -1.44,2.8 -2.8,6.2 z" />
      <path
         id="path841"
         style="font-style:normal;font-variant:normal;font-weight:normal;font-stretch:normal;font-family:'Dancing Script';-inkscape-font-specification:'Dancing Script';fill:#d4aa00;fill-opacity:1;stroke:none;stroke-width:0;stroke-miterlimit:4;stroke-dasharray:none;stroke-opacity:1"
         d="m 376.57391,554.95969 q -2.44,0 -3.68,-1.36 -1.2,-1.32 -1.2,-3.28 0,-1.8 0.88,-3.8 0.92,-2 2.4,-3.76 1.52,-1.76 3.32,-2.84 1.8,-1.12 3.56,-1.12 0.92,0 1.68,0.48 0.8,0.48 0.8,1.96 0,1.52 -0.92,2.88 -0.88,1.32 -2.36,2.36 -1.44,1.04 -3.2,1.72 -1.72,0.64 -3.44,0.8 -0.08,0.4 -0.12,0.76 -0.04,0.36 -0.04,0.68 0,0.6 0.12,1.2 0.16,0.6 0.52,1.12 0.36,0.48 0.96,0.76 0.64,0.28 1.56,0.28 1.72,0 3.4,-0.96 1.68,-1 3.12,-2.6 1.44,-1.6 2.44,-3.52 l 0.48,0.36 q -1.08,2.4 -2.76,4.16 -1.64,1.76 -3.6,2.72 -1.92,1 -3.92,1 z m -1.96,-6.72 q 1.08,-0.36 2.44,-1.04 1.36,-0.72 2.6,-1.68 1.28,-0.96 2.08,-2.12 0.84,-1.16 0.84,-2.44 0,-0.44 -0.16,-0.68 -0.16,-0.24 -0.68,-0.24 -0.96,0 -2.04,0.76 -1.08,0.72 -2.08,1.92 -1,1.2 -1.8,2.64 -0.8,1.44 -1.2,2.88 z" />
      <path
         id="path843"
         style="font-style:normal;font-variant:normal;font-weight:normal;font-stretch:normal;font-family:'Dancing Script';-inkscape-font-specification:'Dancing Script';fill:#d4aa00;fill-opacity:1;stroke:none;stroke-width:0;stroke-miterlimit:4;stroke-dasharray:none;stroke-opacity:1"
         d="m 389.81328,555.23969 q -1.88,0 -3,-0.84 -1.08,-0.8 -1.52,-2 -0.48,-1.2 -0.48,-2.4 0,-1.2 0.32,-1.84 0.32,-0.64 0.76,-0.96 0.48,-0.32 0.88,-0.48 0.44,-0.16 0.6,-0.32 1.2,-1.32 2.2,-2.76 1,-1.44 1.76,-3.04 v -0.48 q 0,-1.48 0.48,-2.08 0.52,-0.64 1.08,-0.64 0.32,0 0.48,0.16 0.16,0.16 0.16,0.36 0,0.2 -0.12,0.64 -0.12,0.44 -0.12,1.12 0,1.32 0.52,2.88 0.52,1.52 1.04,3.24 0.52,1.68 0.52,3.52 0,0.52 -0.08,1.04 -0.04,0.48 -0.16,0.92 1.4,-0.24 2.64,-1.24 1.24,-1.04 2.4,-3.28 l 0.36,0.4 q -0.76,2.2 -2.28,3.36 -1.52,1.12 -3.32,1.4 -0.64,1.72 -2.04,2.52 -1.36,0.8 -3.08,0.8 z m 0.08,-1.4 q 0.48,0 1.28,-0.32 0.8,-0.32 1.24,-1.64 -1.68,-0.32 -3,-1.32 -1.28,-1 -1.92,-2 -0.88,0.04 -0.88,1.4 0,1.44 0.84,2.68 0.88,1.2 2.44,1.2 z m 2.72,-2.6 q 0.08,-0.4 0.12,-0.84 0.04,-0.44 0.04,-1.04 0,-1.88 -0.48,-3.72 -0.44,-1.88 -0.76,-3.52 -0.92,1.52 -1.96,2.92 -1,1.36 -1.92,2.28 0.6,1.28 1.84,2.4 1.28,1.12 3.12,1.52 z" />
      <path
         id="path845"
         style="font-style:normal;font-variant:normal;font-weight:normal;font-stretch:normal;font-family:'Dancing Script';-inkscape-font-specification:'Dancing Script';fill:#d4aa00;fill-opacity:1;stroke:none;stroke-width:0;stroke-miterlimit:4;stroke-dasharray:none;stroke-opacity:1"
         d="m 402.84141,555.03969 q -1.72,0 -2.64,-1 -0.92,-1 -0.92,-2.96 0,-1.76 0.64,-4.32 0.68,-2.6 1.68,-5.32 -0.4,-0.08 -0.76,-0.12 -0.36,-0.08 -0.68,-0.2 v -0.72 q 0.32,0.04 0.76,0.08 0.44,0.04 1,0.08 0.84,-2.16 1.8,-4.16 0.96,-2.04 1.88,-3.6 0.96,-1.6 1.8,-2.52 0.88,-0.96 1.48,-0.96 0.32,0 0.56,0.24 0.28,0.2 0.28,0.64 0,0.68 -0.84,2.24 -0.84,1.52 -2.08,3.64 -1.24,2.12 -2.4,4.6 0.36,0 0.72,0 0.4,0 0.76,0 1.32,0 2.76,-0.04 1.48,-0.04 2.96,-0.2 v 0.72 q -2.2,0.24 -3.96,0.36 -1.72,0.12 -3.08,0.12 -0.16,0 -0.32,0 -0.12,0 -0.28,0 -0.92,2.12 -1.56,4.36 -0.64,2.24 -0.64,4.36 0,1.72 0.52,2.48 0.52,0.72 1.72,0.72 2.08,0 4.08,-1.84 2,-1.84 3.52,-5 l 0.52,0.4 q -0.96,2.24 -2.44,4.04 -1.44,1.8 -3.2,2.84 -1.76,1.04 -3.64,1.04 z" />
      <path
         id="path847"
         style="font-style:normal;font-variant:normal;font-weight:normal;font-stretch:normal;font-family:'Dancing Script';-inkscape-font-specification:'Dancing Script';fill:#d4aa00;fill-opacity:1;stroke:none;stroke-width:0;stroke-miterlimit:4;stroke-dasharray:none;stroke-opacity:1"
         d="m 412.56766,564.39969 q -1,0 -1.76,-0.56 -0.76,-0.52 -0.76,-1.56 0,-1.28 0.64,-2.28 0.64,-1 1.72,-1.84 1.08,-0.84 2.48,-1.6 1.4,-0.76 2.92,-1.52 0.56,-1.48 1.12,-3.28 0.6,-1.84 1.12,-4.04 -1.28,2.08 -2.76,3.6 -1.44,1.48 -3.08,1.48 -0.76,0 -1.52,-0.32 -0.72,-0.36 -1.2,-1.08 -0.48,-0.72 -0.48,-1.84 0,-1.12 0.36,-2.6 0.4,-1.48 0.96,-2.88 0.56,-1.4 1.16,-2.32 0.6,-0.92 1.04,-0.92 0.16,0 0.56,0.12 0.44,0.12 0.8,0.36 0.4,0.2 0.4,0.44 -0.36,0.52 -0.8,1.48 -0.44,0.96 -0.88,2.16 -0.4,1.16 -0.68,2.28 -0.28,1.12 -0.28,1.92 0,0.72 0.32,1.16 0.32,0.44 1.12,0.44 0.76,0 1.68,-0.72 0.96,-0.76 1.88,-1.92 0.96,-1.16 1.76,-2.48 0.12,-0.44 0.2,-0.88 0.12,-0.48 0.2,-0.96 0.12,-0.56 0.56,-1.28 0.48,-0.76 1.48,-0.76 0.2,0 0.4,0.04 0.2,0 0.44,0.08 0,0.64 -0.4,2.4 -0.36,1.72 -1.08,4.04 -0.68,2.32 -1.64,4.76 1.88,-0.72 3.68,-2.36 1.8,-1.68 2.92,-4.44 l 0.52,0.4 q -0.6,1.92 -1.84,3.36 -1.2,1.4 -2.72,2.44 -1.52,1 -3,1.68 -1.04,2.56 -2.28,4.8 -1.2,2.24 -2.56,3.6 -1.32,1.4 -2.72,1.4 z m -0.2,-1.28 q 0.6,0 2,-1.6 1.44,-1.56 3.04,-5.52 -1.64,0.88 -3.04,1.72 -1.4,0.88 -2.24,1.88 -0.84,1 -0.84,2.32 0,0.32 0.24,0.76 0.24,0.44 0.84,0.44 z" />
      <path
         id="path849"
         style="font-style:normal;font-variant:normal;font-weight:normal;font-stretch:normal;font-family:'Dancing Script';-inkscape-font-specification:'Dancing Script';fill:#d4aa00;fill-opacity:1;stroke:none;stroke-width:0;stroke-miterlimit:4;stroke-dasharray:none;stroke-opacity:1"
         d="m 429.71453,554.39969 q -1.72,0 -2.48,-1.2 -0.72,-1.16 -0.72,-2.92 0,-1.92 0.72,-4.56 0.72,-2.64 1.88,-5.56 1.2,-2.92 2.6,-5.68 1.4,-2.8 2.8,-5.08 1.4,-2.28 2.56,-3.64 1.2,-1.36 1.88,-1.36 0.44,0 0.72,0.52 0.28,0.48 0.44,1.2 0.16,0.68 0.16,1.24 0,1.08 -0.56,2.84 -0.52,1.72 -1.52,3.88 -0.96,2.12 -2.32,4.32 -1.32,2.16 -2.92,4.16 -1.56,2 -3.32,3.44 -0.24,1.08 -0.4,2.12 -0.12,1 -0.12,1.92 0,1.56 0.44,2.32 0.44,0.76 1.32,0.76 1.08,0 2.12,-0.96 1.08,-0.96 2,-2.4 0.96,-1.48 1.64,-3.04 l 0.6,0.32 q -1.6,3.4 -3.48,5.4 -1.88,1.96 -4.04,1.96 z m 0.28,-9.76 q 1.4,-1.4 2.72,-3.2 1.32,-1.84 2.44,-3.8 1.16,-1.96 2.04,-3.8 0.88,-1.84 1.36,-3.28 0.48,-1.48 0.48,-2.28 0,-0.4 -0.12,-0.52 -0.08,-0.12 -0.16,-0.12 -0.32,0 -1.12,1.04 -0.76,1 -1.8,2.72 -1.04,1.72 -2.12,3.92 -1.08,2.2 -2.08,4.6 -0.96,2.4 -1.64,4.72 z" />
      <path
         id="path851"
         style="font-style:normal;font-variant:normal;font-weight:normal;font-stretch:normal;font-family:'Dancing Script';-inkscape-font-specification:'Dancing Script';fill:#d4aa00;fill-opacity:1;stroke:none;stroke-width:0;stroke-miterlimit:4;stroke-dasharray:none;stroke-opacity:1"
         d="m 440.16766,554.95969 q -2.44,0 -3.68,-1.36 -1.2,-1.32 -1.2,-3.28 0,-1.8 0.88,-3.8 0.92,-2 2.4,-3.76 1.52,-1.76 3.32,-2.84 1.8,-1.12 3.56,-1.12 0.92,0 1.68,0.48 0.8,0.48 0.8,1.96 0,1.52 -0.92,2.88 -0.88,1.32 -2.36,2.36 -1.44,1.04 -3.2,1.72 -1.72,0.64 -3.44,0.8 -0.08,0.4 -0.12,0.76 -0.04,0.36 -0.04,0.68 0,0.6 0.12,1.2 0.16,0.6 0.52,1.12 0.36,0.48 0.96,0.76 0.64,0.28 1.56,0.28 1.72,0 3.4,-0.96 1.68,-1 3.12,-2.6 1.44,-1.6 2.44,-3.52 l 0.48,0.36 q -1.08,2.4 -2.76,4.16 -1.64,1.76 -3.6,2.72 -1.92,1 -3.92,1 z m -1.96,-6.72 q 1.08,-0.36 2.44,-1.04 1.36,-0.72 2.6,-1.68 1.28,-0.96 2.08,-2.12 0.84,-1.16 0.84,-2.44 0,-0.44 -0.16,-0.68 -0.16,-0.24 -0.68,-0.24 -0.96,0 -2.04,0.76 -1.08,0.72 -2.08,1.92 -1,1.2 -1.8,2.64 -0.8,1.44 -1.2,2.88 z" />
    </g>
    <g
       id="text20"
       style="font-style:normal;font-variant:normal;font-weight:normal;font-stretch:normal;font-size:10.58333302px;line-height:1.25;font-family:'Dancing Script';-inkscape-font-specification:'Dancing Script';letter-spacing:0px;word-spacing:0px;fill:#d4aa00;fill-opacity:1;stroke:none;stroke-width:0;stroke-miterlimit:4;stroke-dasharray:none" />
  </g>
</svg>
